<?xml version="1.0" encoding="utf-8"?>
<!-- Generator: Adobe Illustrator 16.0.0, SVG Export Plug-In . SVG Version: 6.00 Build 0)  -->
<!DOCTYPE svg PUBLIC "-//W3C//DTD SVG 1.1//EN" "http://www.w3.org/Graphics/SVG/1.1/DTD/svg11.dtd">
<svg version="1.1" id="图层_1" xmlns="http://www.w3.org/2000/svg" xmlns:xlink="http://www.w3.org/1999/xlink" x="0px" y="0px"
	 width="176.064px" height="182.771px" viewBox="0 0 176.064 182.771" enable-background="new 0 0 176.064 182.771"
	 xml:space="preserve">
<path d="M176.03,176.497c-1.271-9.469-4.054-18.61-8.266-27.175c-0.824-1.674-1.697-3.32-2.622-4.934
	c-0.003-0.004-0.005-0.011-0.011-0.016c-4.01-6.792-8.93-13.097-14.664-18.726l-0.003-0.002c-1.247-1.226-2.53-2.418-3.854-3.576
	c-9.43-8.263-20.313-14.389-31.922-18.115c2.103-1.164,4.135-2.469,6.086-3.912c2.224-1.639,4.339-3.459,6.329-5.448
	c10.465-10.464,16.229-24.381,16.229-39.183c0-14.801-5.765-28.718-16.229-39.183C116.831,5.954,103.227,0.213,88.729,0.006
	C88.5,0.002,88.269,0,88.04,0s-0.46,0.003-0.69,0.006c-14.498,0.207-28.1,5.948-38.375,16.225
	C38.51,26.696,32.745,40.612,32.745,55.413s5.765,28.718,16.229,39.183c1.99,1.989,4.106,3.811,6.329,5.448
	c1.952,1.443,3.985,2.749,6.086,3.912c-11.608,3.728-22.493,9.854-31.921,18.115c-1.322,1.158-2.606,2.353-3.854,3.576
	c-5.738,5.633-10.664,11.943-14.677,18.742c-0.925,1.612-1.797,3.26-2.622,4.934c-4.213,8.563-6.994,17.706-8.266,27.175
	c-0.407,3.034,1.722,5.823,4.753,6.229c0.25,0.033,0.5,0.051,0.746,0.051c0.225,0,0.445-0.013,0.665-0.04
	c2.191-0.478,3.962-2.266,4.306-4.614c2.553-17.526,10.907-33.452,22.915-45.582c14.25-14.399,33.646-23.448,54.606-23.483h0.118
	c20.914,0.071,40.265,9.113,54.486,23.483c12.007,12.13,20.361,28.056,22.914,45.582c0.345,2.345,2.106,4.13,4.294,4.611
	c0.005,0,0.007,0.003,0.014,0.003c0.22,0.028,0.438,0.04,0.663,0.04c0.246,0,0.496-0.018,0.746-0.05
	C174.308,182.322,176.437,179.532,176.03,176.497L176.03,176.497z M87.921,99.743c-0.111,0-0.224,0-0.334-0.002
	c-20.683-0.152-39.122-14.521-44.161-33.795c-0.056-0.209-0.111-0.422-0.162-0.634c-0.789-3.187-1.209-6.498-1.209-9.9
	c0-3.399,0.42-6.75,1.209-9.992c0.05-0.217,0.106-0.433,0.162-0.646c5.067-19.757,23.679-35.46,44.495-35.46h0.236
	c20.816,0,39.429,15.704,44.494,35.46c0.057,0.215,0.111,0.43,0.162,0.646c0.789,3.241,1.209,6.592,1.209,9.992
	c0,3.401-0.42,6.713-1.209,9.899c-0.05,0.212-0.105,0.425-0.162,0.634C127.612,85.22,109.173,99.589,88.49,99.74
	C88.302,99.743,88.112,99.743,87.921,99.743L87.921,99.743z"/>
</svg>
