<?xml version="1.0" standalone="no"?>
<svg width="64" height="64" viewBox="0 0 384 384" version="1.1" xmlns="http://www.w3.org/2000/svg">
  <path d="M353 384c18 0 31 -13 31 -30v-321c0 -17 -13 -33 -31 -33h-320c-18 0 -33 16 -33 33v321c0 17 15 30 33 30h320zM119 64v171h-55v-171h55zM93 261c18 0 30 13 30 29c0 17 -11 30 -29 30s-30 -13 -30 -30c0 -16 11 -29 29 -29v0zM320 64v100c0 51 -27 75 -63 75 c-29 0 -42 -17 -50 -28v24h-55v-171h55v97c0 5 0 10 2 14c4 10 13 20 28 20c20 0 28 -15 28 -37v-94h55z" transform="matrix(1,0,0,-1,0,384)"/>
</svg>