<?xml version="1.0" standalone="no"?>
<svg width="64" height="64" viewBox="0 0 416 384" version="1.1" xmlns="http://www.w3.org/2000/svg">
  <path d="M25 57c-1 1 0 2 -1 3c-15 22 -24 49 -24 77c0 42 19 80 49 106c-2 -11 -4 -22 -4 -34c0 -92 78 -168 174 -168c15 0 30 2 44 6c-27 -32 -69 -53 -115 -53c-20 0 -40 5 -58 12h-1v0c-2 1 -5 2 -8 2s-6 -1 -9 -2l-56 -22l12 63c0 4 -1 7 -3 10v0zM242 400 c96 0 174 -76 174 -168c0 -33 -11 -64 -28 -90c-1 -1 -1 -2 -2 -3v0c-2 -4 -3 -8 -3 -12l17 -74l-69 26c-3 1 -6 2 -10 2c-3 0 -6 -1 -9 -2v0l-2 -1c-8 -3 -16 -5 -24 -7c-14 -4 -29 -6 -44 -6c-96 0 -173 75 -173 167c0 12 1 24 3 35c16 76 86 133 170 133z" transform="matrix(1,0,0,-1,0,384)"/>
</svg>