<?xml version="1.0" standalone="no"?>
<svg width="64" height="64" viewBox="0 0 1792 1280" version="1.1" xmlns="http://www.w3.org/2000/svg">
  <path d="M1536 192v-128q0 -26 -19 -45t-45 -19h-1408q-26 0 -45 19t-19 45v128q0 26 19 45t45 19h1408q26 0 45 -19t19 -45zM1536 704v-128q0 -26 -19 -45t-45 -19h-1408q-26 0 -45 19t-19 45v128q0 26 19 45t45 19h1408q26 0 45 -19t19 -45zM1536 1216v-128q0 -26 -19 -45 t-45 -19h-1408q-26 0 -45 19t-19 45v128q0 26 19 45t45 19h1408q26 0 45 -19t19 -45z" transform="matrix(1,0,0,-1,0,1280)"/>
</svg>