<?xml version="1.0" standalone="no"?>
<svg width="64" height="64" viewBox="0 0 472 384" version="1.1" xmlns="http://www.w3.org/2000/svg">
  <path d="M472 338c-13 -20 -29 -36 -48 -50v-12c0 -128 -98 -276 -276 -276c-55 0 -105 16 -148 44c8 -1 15 -2 23 -2c45 0 87 16 120 42c-42 1 -78 29 -90 67c6 -1 12 -2 18 -2c9 0 18 2 26 4c-44 9 -78 48 -78 95v1c13 -7 28 -12 44 -12c-26 17 -43 47 -43 81c0 18 5 34 13 48 c48 -59 119 -97 199 -101c-2 7 -2 14 -2 22c0 54 43 97 97 97c28 0 52 -12 70 -31c22 4 43 13 62 24c-7 -23 -23 -42 -43 -54c20 2 39 7 56 15z" transform="matrix(1,0,0,-1,0,384)"/>
</svg>