<?xml version="1.0" standalone="no"?>
<svg width="64" height="64" viewBox="0 0 384 384" version="1.1" xmlns="http://www.w3.org/2000/svg">
  <path d="M119 64v0h-55v171h55v-171zM93 261v0v0c-18 0 -29 13 -29 29c0 17 12 30 30 30s29 -13 29 -30c0 -16 -12 -29 -30 -29zM257 239c36 0 63 -24 63 -75v-100h-55v94c0 22 -8 37 -28 37c-15 0 -24 -10 -28 -20c-2 -4 -2 -9 -2 -14v-97h-55v171h55v-24c8 11 21 28 50 28z M353 384c18 0 31 -13 31 -30v-321c0 -17 -13 -33 -31 -33h-320c-18 0 -33 16 -33 33v321c0 17 15 30 33 30h320zM350 32c1 0 2 1 2 2v316c0 1 -1 2 -2 2h-316s-2 -1 -2 -2v-315s1 -3 3 -3h315z" transform="matrix(1,0,0,-1,0,384)"/>
</svg>