<?xml version="1.0" encoding="utf-8"?>
<!-- Generator: Adobe Illustrator 16.0.0, SVG Export Plug-In . SVG Version: 6.00 Build 0)  -->
<!DOCTYPE svg PUBLIC "-//W3C//DTD SVG 1.1//EN" "http://www.w3.org/Graphics/SVG/1.1/DTD/svg11.dtd">
<svg version="1.1" id="图层_1" xmlns="http://www.w3.org/2000/svg" xmlns:xlink="http://www.w3.org/1999/xlink" x="0px" y="0px"
	 width="49.833px" height="49.83px" viewBox="0 0 49.833 49.83" enable-background="new 0 0 49.833 49.83" xml:space="preserve">
<g>
	<path d="M24.849,34.195c9.442,0,17.097-7.655,17.097-17.098C41.946,7.655,34.291,0,24.849,0C15.406,0,7.751,7.655,7.751,17.097
		C7.751,26.54,15.406,34.195,24.849,34.195z M36.785,21.726c-1.857,4.784-6.496,8.184-11.936,8.184
		c-5.442,0-10.079-3.399-11.936-8.184H36.785z"/>
	<path d="M34.691,35.492c-2.297,1.58-5.827,2.596-9.793,2.596c-3.961,0-7.488-1.013-9.785-2.588C7.484,37.642,1.664,43.068,0,49.778
		h49.833C48.167,43.061,42.333,37.628,34.691,35.492z"/>
</g>
</svg>
