<?xml version="1.0" standalone="no"?>
<svg width="64" height="64" viewBox="0 0 384 384" version="1.1" xmlns="http://www.w3.org/2000/svg">
  <path d="M7 284c-9 4 -9 11 0 15l169 82c4 2 10 3 16 3s12 -1 16 -3l169 -82c9 -4 9 -11 0 -15l-169 -82c-4 -2 -10 -3 -16 -3s-12 1 -16 3zM377 200c9 -4 9 -12 0 -16l-169 -81c-4 -2 -10 -4 -16 -4s-12 2 -16 4l-169 81c-9 4 -9 12 0 16c0 0 27 13 33 16c5 3 7 3 13 0 s123 -60 123 -60c4 -2 10 -3 16 -3s12 1 16 3c0 0 121 59 125 61s5 2 9 0s35 -17 35 -17zM377 100c9 -4 9 -11 0 -15l-169 -82c-4 -2 -10 -3 -16 -3s-12 1 -16 3l-169 82c-9 4 -9 11 0 15c0 0 27 14 33 17c5 3 7 2 13 -1s123 -59 123 -59c4 -2 10 -3 16 -3s12 1 16 3 c0 0 121 58 125 60s5 2 9 0s35 -17 35 -17z" transform="matrix(1,0,0,-1,0,384)"/>
</svg>